<mxfile host="app.diagrams.net" agent="Mozilla/5.0 (Macintosh; Intel Mac OS X 10_15_7) AppleWebKit/605.1.15 (KHTML, like Gecko) Version/18.2 Safari/605.1.15" version="25.0.3">
  <diagram name="Page-1" id="HGpFZIgrX5HXIKhn64qT">
    <mxGraphModel dx="2295" dy="995" grid="1" gridSize="10" guides="1" tooltips="1" connect="1" arrows="1" fold="1" page="1" pageScale="1" pageWidth="827" pageHeight="1169" math="0" shadow="0">
      <root>
        <mxCell id="0" />
        <mxCell id="1" parent="0" />
        <mxCell id="73OWAqlcFQXWZOg_Nexa-3" value="&lt;p style=&quot;margin:0px;margin-top:4px;text-align:center;&quot;&gt;&lt;b&gt;&lt;i&gt;interface&lt;/i&gt; IAgent&amp;nbsp;&lt;/b&gt;&lt;/p&gt;&lt;hr size=&quot;1&quot; style=&quot;border-style:solid;&quot;&gt;&lt;p style=&quot;margin:0px;margin-left:4px;&quot;&gt;&lt;/p&gt;&lt;p style=&quot;margin:0px;margin-left:4px;&quot;&gt;+ Percept()&lt;/p&gt;&lt;p style=&quot;margin:0px;margin-left:4px;&quot;&gt;+ Deliberate()&lt;/p&gt;&lt;p style=&quot;margin:0px;margin-left:4px;&quot;&gt;+ Act()&lt;/p&gt;&lt;p style=&quot;margin:0px;margin-left:4px;&quot;&gt;+ ID() AgentID&lt;/p&gt;&lt;p style=&quot;margin:0px;margin-left:4px;&quot;&gt;&lt;span class=&quot;&quot;&gt;+ GetSyncChan() &lt;/span&gt;&lt;span class=&quot;hljs-keyword&quot;&gt;chan&lt;/span&gt;&lt;span class=&quot;&quot;&gt; &lt;/span&gt;&lt;span class=&quot;hljs-type&quot;&gt;bool&lt;/span&gt;&lt;/p&gt;&lt;p style=&quot;margin:0px;margin-left:4px;&quot;&gt;&lt;span class=&quot;&quot;&gt;+ ToJsonObj() &lt;/span&gt;&lt;span class=&quot;hljs-keyword&quot;&gt;interface&lt;/span&gt;&lt;span class=&quot;&quot;&gt;{}&lt;/span&gt;&lt;/p&gt;&lt;p style=&quot;margin:0px;margin-left:4px;&quot;&gt;+ Orientation()&lt;/p&gt;&lt;p style=&quot;margin:0px;margin-left:4px;&quot;&gt;+ Position() *Position&lt;/p&gt;" style="verticalAlign=top;align=left;overflow=fill;html=1;whiteSpace=wrap;fillColor=#fff2cc;strokeColor=#d6b656;" parent="1" vertex="1">
          <mxGeometry x="370" y="180" width="170" height="170" as="geometry" />
        </mxCell>
        <mxCell id="73OWAqlcFQXWZOg_Nexa-19" style="edgeStyle=orthogonalEdgeStyle;rounded=0;orthogonalLoop=1;jettySize=auto;html=1;exitX=0.464;exitY=-0.007;exitDx=0;exitDy=0;entryX=0.5;entryY=1;entryDx=0;entryDy=0;endArrow=block;endFill=0;exitPerimeter=0;" parent="1" source="26" target="73OWAqlcFQXWZOg_Nexa-18" edge="1">
          <mxGeometry relative="1" as="geometry">
            <Array as="points">
              <mxPoint x="503" y="730" />
              <mxPoint x="455" y="730" />
            </Array>
            <mxPoint x="510" y="640" as="sourcePoint" />
          </mxGeometry>
        </mxCell>
        <mxCell id="8" style="edgeStyle=none;html=1;strokeWidth=1;endArrow=none;endFill=0;endSize=18;strokeColor=default;rounded=0;entryX=0.521;entryY=1.059;entryDx=0;entryDy=0;entryPerimeter=0;exitX=0.75;exitY=0;exitDx=0;exitDy=0;startArrow=diamondThin;startFill=0;startSize=18;" parent="1" source="26" target="73OWAqlcFQXWZOg_Nexa-42" edge="1">
          <mxGeometry relative="1" as="geometry">
            <Array as="points">
              <mxPoint x="555" y="720" />
              <mxPoint x="792" y="720" />
            </Array>
            <mxPoint x="590" y="746" as="sourcePoint" />
          </mxGeometry>
        </mxCell>
        <mxCell id="73OWAqlcFQXWZOg_Nexa-20" value="" style="edgeStyle=orthogonalEdgeStyle;rounded=0;orthogonalLoop=1;jettySize=auto;html=1;endArrow=block;endFill=0;" parent="1" source="73OWAqlcFQXWZOg_Nexa-12" target="73OWAqlcFQXWZOg_Nexa-18" edge="1">
          <mxGeometry relative="1" as="geometry" />
        </mxCell>
        <mxCell id="73OWAqlcFQXWZOg_Nexa-12" value="Hornet" style="swimlane;fontStyle=1;align=center;verticalAlign=top;childLayout=stackLayout;horizontal=1;startSize=26;horizontalStack=0;resizeParent=1;resizeParentMax=0;resizeLast=0;collapsible=1;marginBottom=0;whiteSpace=wrap;html=1;fillColor=#7A6831;strokeColor=#36393d;" parent="1" vertex="1">
          <mxGeometry x="200" y="840" width="160" height="134" as="geometry" />
        </mxCell>
        <mxCell id="Lo6yCbSQAKc7gAuxm41h-64" value="&lt;div style=&quot;text-align: left; white-space: normal;&quot;&gt;killCount : int&lt;/div&gt;" style="text;html=1;align=center;verticalAlign=middle;resizable=0;points=[];autosize=1;strokeColor=none;fillColor=none;" vertex="1" parent="73OWAqlcFQXWZOg_Nexa-12">
          <mxGeometry y="26" width="160" height="30" as="geometry" />
        </mxCell>
        <mxCell id="73OWAqlcFQXWZOg_Nexa-14" value="" style="line;strokeWidth=1;fillColor=none;align=left;verticalAlign=middle;spacingTop=-1;spacingLeft=3;spacingRight=3;rotatable=0;labelPosition=right;points=[];portConstraint=eastwest;strokeColor=inherit;" parent="73OWAqlcFQXWZOg_Nexa-12" vertex="1">
          <mxGeometry y="56" width="160" height="8" as="geometry" />
        </mxCell>
        <mxCell id="73OWAqlcFQXWZOg_Nexa-15" value="&lt;div&gt;- killBee()&lt;br&gt;&lt;/div&gt;&lt;div&gt;- findFlower()&lt;/div&gt;&lt;div&gt;&lt;span style=&quot;background-color: initial;&quot;&gt;- followBee(Bee)&lt;/span&gt;&lt;br&gt;&lt;/div&gt;&lt;div&gt;- findHive()&lt;/div&gt;" style="text;strokeColor=none;fillColor=none;align=left;verticalAlign=top;spacingLeft=4;spacingRight=4;overflow=hidden;rotatable=0;points=[[0,0.5],[1,0.5]];portConstraint=eastwest;whiteSpace=wrap;html=1;" parent="73OWAqlcFQXWZOg_Nexa-12" vertex="1">
          <mxGeometry y="64" width="160" height="70" as="geometry" />
        </mxCell>
        <mxCell id="2" style="edgeStyle=none;html=1;exitX=0.5;exitY=0;exitDx=0;exitDy=0;entryX=0.5;entryY=1;entryDx=0;entryDy=0;endArrow=block;endFill=0;" parent="1" source="73OWAqlcFQXWZOg_Nexa-18" target="73OWAqlcFQXWZOg_Nexa-3" edge="1">
          <mxGeometry relative="1" as="geometry" />
        </mxCell>
        <mxCell id="73OWAqlcFQXWZOg_Nexa-18" value="&lt;p style=&quot;margin:0px;margin-top:4px;text-align:center;&quot;&gt;&lt;i&gt;&amp;lt;&amp;lt;Abstract&amp;gt;&amp;gt;&lt;/i&gt;&lt;br&gt;&lt;b&gt;Agent&lt;/b&gt;&lt;/p&gt;&lt;hr size=&quot;1&quot; style=&quot;border-style:solid;&quot;&gt;&lt;div&gt;&lt;span style=&quot;background-color: initial;&quot;&gt;&amp;nbsp;- speed : int&lt;/span&gt;&lt;/div&gt;&lt;div&gt;&lt;span style=&quot;background-color: initial;&quot;&gt;- birthDate : time.Time&lt;/span&gt;&lt;/div&gt;&lt;div&gt;&lt;span style=&quot;background-color: initial;&quot;&gt;- alive : bool&lt;/span&gt;&lt;/div&gt;&lt;div&gt;&lt;span style=&quot;background-color: initial;&quot;&gt;- seenElems : []*vision.Elems&lt;/span&gt;&lt;/div&gt;&lt;div&gt;&lt;span style=&quot;background-color: initial;&quot;&gt;- objective : Objective&lt;/span&gt;&lt;/div&gt;&lt;div&gt;&lt;span style=&quot;background-color: initial;&quot;&gt;- syncChan : chan&lt;/span&gt;&lt;/div&gt;&lt;div&gt;&lt;span style=&quot;background-color: initial;&quot;&gt;- position : Position&lt;/span&gt;&lt;/div&gt;&lt;div&gt;&lt;span style=&quot;background-color: initial;&quot;&gt;- lastPos : Position&lt;/span&gt;&lt;/div&gt;&lt;div&gt;&lt;span style=&quot;background-color: initial;&quot;&gt;- orientation : Orientation&amp;nbsp;&lt;/span&gt;&lt;/div&gt;" style="verticalAlign=top;align=left;overflow=fill;html=1;whiteSpace=wrap;fillColor=#ffe6cc;strokeColor=#d79b00;fillStyle=auto;" parent="1" vertex="1">
          <mxGeometry x="360" y="410" width="190" height="210" as="geometry" />
        </mxCell>
        <mxCell id="73OWAqlcFQXWZOg_Nexa-22" value="&lt;p style=&quot;margin:0px;margin-top:4px;text-align:center;&quot;&gt;&lt;b&gt;Simulation&lt;/b&gt;&lt;/p&gt;&lt;hr size=&quot;1&quot; style=&quot;border-style:solid;&quot;&gt;&lt;p style=&quot;margin:0px;margin-left:4px;&quot;&gt;- &amp;nbsp;Env : Environnement&lt;/p&gt;&lt;p style=&quot;margin:0px;margin-left:4px;&quot;&gt;- ws : WebSocket&lt;/p&gt;&lt;p style=&quot;margin:0px;margin-left:4px;&quot;&gt;- running : bool&lt;/p&gt;&lt;p style=&quot;margin:0px;margin-left:4px;&quot;&gt;- sync Mutex&lt;/p&gt;&lt;p style=&quot;margin:0px;margin-left:4px;&quot;&gt;- addBee&lt;/p&gt;&lt;hr size=&quot;1&quot; style=&quot;border-style:solid;&quot;&gt;&lt;p style=&quot;margin:0px;margin-left:4px;&quot;&gt;+ IsRunning() bool&lt;/p&gt;&lt;p style=&quot;margin:0px;margin-left:4px;&quot;&gt;+ Run(maWs *websocket.Conn)&lt;/p&gt;&lt;p style=&quot;margin:0px;margin-left:4px;&quot;&gt;+ Stop()&lt;/p&gt;&lt;p style=&quot;margin:0px;margin-left:4px;&quot;&gt;+ log()&lt;/p&gt;&lt;p style=&quot;margin:0px;margin-left:4px;&quot;&gt;+ sendState()&lt;/p&gt;&lt;p style=&quot;margin:0px;margin-left:4px;&quot;&gt;+ print()&lt;/p&gt;&lt;p style=&quot;margin:0px;margin-left:4px;&quot;&gt;+ ToJsonObj() SimulationJson&lt;/p&gt;&lt;p style=&quot;margin:0px;margin-left:4px;&quot;&gt;+ AddBee() bool&lt;/p&gt;" style="verticalAlign=top;align=left;overflow=fill;html=1;whiteSpace=wrap;fillColor=#dae8fc;strokeColor=#6c8ebf;" parent="1" vertex="1">
          <mxGeometry x="-210" y="118.28999999999999" width="180" height="233.43" as="geometry" />
        </mxCell>
        <mxCell id="73OWAqlcFQXWZOg_Nexa-25" style="edgeStyle=orthogonalEdgeStyle;rounded=0;orthogonalLoop=1;jettySize=auto;html=1;exitX=0;exitY=0.5;exitDx=0;exitDy=0;endArrow=diamondThin;endFill=1;endSize=16;" parent="1" source="73OWAqlcFQXWZOg_Nexa-23" target="73OWAqlcFQXWZOg_Nexa-22" edge="1">
          <mxGeometry relative="1" as="geometry" />
        </mxCell>
        <mxCell id="73OWAqlcFQXWZOg_Nexa-23" value="&lt;p style=&quot;margin:0px;margin-top:4px;text-align:center;&quot;&gt;&lt;b&gt;Environnement&lt;/b&gt;&lt;/p&gt;&lt;hr size=&quot;1&quot; style=&quot;border-style:solid;&quot;&gt;&lt;p style=&quot;margin:0px;margin-left:4px;&quot;&gt;+ Object: []Object&lt;/p&gt;&lt;p style=&quot;margin:0px;margin-left:4px;&quot;&gt;+ Agent : []Agent&lt;/p&gt;&lt;hr size=&quot;1&quot; style=&quot;border-style:solid;&quot;&gt;&lt;p style=&quot;margin:0px;margin-left:4px;&quot;&gt;+ GrowFlower()&lt;/p&gt;&lt;p style=&quot;margin:0px;margin-left:4px;&quot;&gt;+ GenerateHornet()&lt;/p&gt;&lt;p style=&quot;margin:0px;margin-left:4px;&quot;&gt;+ GetAt(x int, y int) interface{}&lt;/p&gt;&lt;p style=&quot;margin:0px;margin-left:4px;&quot;&gt;+ GetMap() [][] interface{}&lt;/p&gt;&lt;p style=&quot;margin:0px;margin-left:4px;&quot;&gt;+ GetMapDimension() int&lt;/p&gt;&lt;p style=&quot;margin:0px;margin-left:4px;&quot;&gt;+ ObjectCount(obj ObjectType) int&lt;/p&gt;&lt;p style=&quot;margin:0px;margin-left:4px;&quot;&gt;+ BeeAgentCount() int&lt;/p&gt;&lt;p style=&quot;margin:0px;margin-left:4px;&quot;&gt;+ AllObjectCount() int&lt;/p&gt;&lt;p style=&quot;margin:0px;margin-left:4px;&quot;&gt;+ AllAgentCount() int&lt;/p&gt;&lt;p style=&quot;margin:0px;margin-left:4px;&quot;&gt;+ IsValidPosition(x int, y int) bool&lt;/p&gt;&lt;p style=&quot;margin:0px;margin-left:4px;&quot;&gt;+ AddAgent(agt IAgent) bool&lt;/p&gt;&lt;p style=&quot;margin:0px;margin-left:4px;&quot;&gt;+ RemoveAgent(agt IAgent)&lt;/p&gt;&lt;p style=&quot;margin:0px;margin-left:4px;&quot;&gt;+ RemoveObject(obj IObject)&lt;/p&gt;&lt;p style=&quot;margin:0px;margin-left:4px;&quot;&gt;+ AddObject(obj IObject) bool&lt;/p&gt;&lt;p style=&quot;margin:0px;margin-left:4px;&quot;&gt;+ PathFinding(start *Position, end *Position, numberMoves int) []*Position&lt;/p&gt;&lt;p style=&quot;margin:0px;margin-left:4px;&quot;&gt;+ ToJsonObj() interface{}&lt;/p&gt;&lt;p style=&quot;margin:0px;margin-left:4px;&quot;&gt;+ GetHive() IObject&lt;/p&gt;&lt;p style=&quot;margin:0px;margin-left:4px;&quot;&gt;+ GetNumberAgent() int&lt;/p&gt;" style="verticalAlign=top;align=left;overflow=fill;html=1;whiteSpace=wrap;fillColor=#d5e8d4;strokeColor=#82b366;" parent="1" vertex="1">
          <mxGeometry x="20" y="60" width="240" height="350" as="geometry" />
        </mxCell>
        <mxCell id="73OWAqlcFQXWZOg_Nexa-28" value="&lt;p style=&quot;margin:0px;margin-top:4px;text-align:center;&quot;&gt;&lt;b&gt;&lt;font face=&quot;Helvetica&quot;&gt;&lt;i&gt;interface&lt;/i&gt; IObject&amp;nbsp;&lt;/font&gt;&lt;/b&gt;&lt;/p&gt;&lt;hr size=&quot;1&quot; style=&quot;border-style:solid;&quot;&gt;&lt;p style=&quot;margin:0px;margin-left:4px;&quot;&gt;&lt;/p&gt;&lt;pre lang=&quot;go&quot; class=&quot;code highlight&quot;&gt;&lt;font face=&quot;Helvetica&quot;&gt;&lt;span class=&quot;&quot;&gt;+ Interact()&lt;/span&gt;&lt;br&gt;&lt;span class=&quot;&quot;&gt;+ Copy() Object&lt;/span&gt;&lt;br&gt;&lt;span class=&quot;&quot;&gt;+ ChangeTo(Object)&lt;/span&gt;&lt;br&gt;&lt;span class=&quot;&quot;&gt;+ ToJsonObj() &lt;/span&gt;&lt;span class=&quot;hljs-keyword&quot;&gt;interface&lt;/span&gt;&lt;span class=&quot;&quot;&gt;{}&lt;/span&gt;&lt;/font&gt;&lt;/pre&gt;" style="verticalAlign=top;align=left;overflow=fill;html=1;whiteSpace=wrap;fillColor=#fff2cc;strokeColor=#d6b656;" parent="1" vertex="1">
          <mxGeometry x="702.5" y="27.5" width="170" height="120" as="geometry" />
        </mxCell>
        <mxCell id="6" style="edgeStyle=none;html=1;exitX=0.5;exitY=0;exitDx=0;exitDy=0;strokeWidth=1;endArrow=block;endFill=0;endSize=6;entryX=0.5;entryY=1;entryDx=0;entryDy=0;" parent="1" source="73OWAqlcFQXWZOg_Nexa-33" target="73OWAqlcFQXWZOg_Nexa-28" edge="1">
          <mxGeometry relative="1" as="geometry">
            <mxPoint x="712.5" y="190" as="targetPoint" />
          </mxGeometry>
        </mxCell>
        <mxCell id="73OWAqlcFQXWZOg_Nexa-33" value="&lt;p style=&quot;margin:0px;margin-top:4px;text-align:center;&quot;&gt;&lt;i&gt;&amp;lt;&amp;lt;Abstract&amp;gt;&amp;gt;&lt;/i&gt;&lt;br&gt;&lt;b&gt;Object&lt;/b&gt;&lt;/p&gt;&lt;hr size=&quot;1&quot; style=&quot;border-style:solid;&quot;&gt;&lt;div&gt;-- ID() ObjectID&lt;br&gt;&lt;/div&gt;&lt;div&gt;- Position() *Position&amp;nbsp;&lt;/div&gt;&lt;div&gt;- Copy() interface{}&lt;/div&gt;&lt;div&gt;- Become() interface{}&lt;/div&gt;&lt;div&gt;- Update()&amp;nbsp;&lt;/div&gt;&lt;div&gt;- ToJsonObject() interface{}&lt;/div&gt;&lt;div&gt;- TypeObject() ObjectType&lt;/div&gt;" style="verticalAlign=top;align=left;overflow=fill;html=1;whiteSpace=wrap;fillColor=#ffe6cc;strokeColor=#d79b00;" parent="1" vertex="1">
          <mxGeometry x="692.5" y="240" width="190" height="160" as="geometry" />
        </mxCell>
        <mxCell id="73OWAqlcFQXWZOg_Nexa-34" style="edgeStyle=orthogonalEdgeStyle;rounded=0;orthogonalLoop=1;jettySize=auto;html=1;endArrow=diamondThin;endFill=1;endSize=16;entryX=1;entryY=0.25;entryDx=0;entryDy=0;exitX=0;exitY=0.5;exitDx=0;exitDy=0;" parent="1" source="73OWAqlcFQXWZOg_Nexa-28" target="73OWAqlcFQXWZOg_Nexa-23" edge="1">
          <mxGeometry relative="1" as="geometry">
            <mxPoint x="753.75" y="-60" as="sourcePoint" />
            <mxPoint x="266.25" y="123.75" as="targetPoint" />
            <Array as="points">
              <mxPoint x="450" y="88" />
              <mxPoint x="450" y="148" />
              <mxPoint x="290" y="148" />
            </Array>
          </mxGeometry>
        </mxCell>
        <mxCell id="73OWAqlcFQXWZOg_Nexa-49" style="edgeStyle=orthogonalEdgeStyle;rounded=0;orthogonalLoop=1;jettySize=auto;html=1;exitX=0.5;exitY=0;exitDx=0;exitDy=0;entryX=1;entryY=0.75;entryDx=0;entryDy=0;endArrow=block;endFill=0;" parent="1" source="73OWAqlcFQXWZOg_Nexa-35" target="73OWAqlcFQXWZOg_Nexa-33" edge="1">
          <mxGeometry relative="1" as="geometry">
            <mxPoint x="992.5" y="280" as="targetPoint" />
          </mxGeometry>
        </mxCell>
        <mxCell id="73OWAqlcFQXWZOg_Nexa-35" value="Flower" style="swimlane;fontStyle=1;align=center;verticalAlign=top;childLayout=stackLayout;horizontal=1;startSize=26;horizontalStack=0;resizeParent=1;resizeParentMax=0;resizeLast=0;collapsible=1;marginBottom=0;whiteSpace=wrap;html=1;fillColor=#7A6831;strokeColor=#36393d;" parent="1" vertex="1">
          <mxGeometry x="967" y="497" width="160" height="88" as="geometry" />
        </mxCell>
        <mxCell id="73OWAqlcFQXWZOg_Nexa-36" value="- quantityPollen : int&lt;br&gt;- pollinated: boolean&lt;br&gt;- gender: [male, female]" style="text;strokeColor=none;fillColor=none;align=left;verticalAlign=top;spacingLeft=4;spacingRight=4;overflow=hidden;rotatable=0;points=[[0,0.5],[1,0.5]];portConstraint=eastwest;whiteSpace=wrap;html=1;" parent="73OWAqlcFQXWZOg_Nexa-35" vertex="1">
          <mxGeometry y="26" width="160" height="54" as="geometry" />
        </mxCell>
        <mxCell id="73OWAqlcFQXWZOg_Nexa-37" value="" style="line;strokeWidth=1;fillColor=none;align=left;verticalAlign=middle;spacingTop=-1;spacingLeft=3;spacingRight=3;rotatable=0;labelPosition=right;points=[];portConstraint=eastwest;strokeColor=inherit;" parent="73OWAqlcFQXWZOg_Nexa-35" vertex="1">
          <mxGeometry y="80" width="160" height="8" as="geometry" />
        </mxCell>
        <mxCell id="73OWAqlcFQXWZOg_Nexa-51" style="edgeStyle=orthogonalEdgeStyle;rounded=0;orthogonalLoop=1;jettySize=auto;html=1;exitX=0.5;exitY=0;exitDx=0;exitDy=0;entryX=0.5;entryY=1;entryDx=0;entryDy=0;endArrow=block;endFill=0;" parent="1" source="73OWAqlcFQXWZOg_Nexa-39" target="73OWAqlcFQXWZOg_Nexa-33" edge="1">
          <mxGeometry relative="1" as="geometry">
            <mxPoint x="1152.5" y="220" as="targetPoint" />
          </mxGeometry>
        </mxCell>
        <mxCell id="73OWAqlcFQXWZOg_Nexa-39" value="Hive" style="swimlane;fontStyle=1;align=center;verticalAlign=top;childLayout=stackLayout;horizontal=1;startSize=26;horizontalStack=0;resizeParent=1;resizeParentMax=0;resizeLast=0;collapsible=1;marginBottom=0;whiteSpace=wrap;html=1;fillColor=#7A6831;strokeColor=#36393d;" parent="1" vertex="1">
          <mxGeometry x="682.5" y="497" width="210" height="180" as="geometry" />
        </mxCell>
        <mxCell id="73OWAqlcFQXWZOg_Nexa-40" value="- quantityHoney : int&lt;br&gt;- quantityNectar : int&lt;br&gt;- quantityPollen : int&lt;br&gt;- queen : boolean&lt;br&gt;- minHoney : int" style="text;strokeColor=none;fillColor=none;align=left;verticalAlign=top;spacingLeft=4;spacingRight=4;overflow=hidden;rotatable=0;points=[[0,0.5],[1,0.5]];portConstraint=eastwest;whiteSpace=wrap;html=1;" parent="73OWAqlcFQXWZOg_Nexa-39" vertex="1">
          <mxGeometry y="26" width="210" height="84" as="geometry" />
        </mxCell>
        <mxCell id="73OWAqlcFQXWZOg_Nexa-41" value="" style="line;strokeWidth=1;fillColor=none;align=left;verticalAlign=middle;spacingTop=-1;spacingLeft=3;spacingRight=3;rotatable=0;labelPosition=right;points=[];portConstraint=eastwest;strokeColor=inherit;" parent="73OWAqlcFQXWZOg_Nexa-39" vertex="1">
          <mxGeometry y="110" width="210" height="8" as="geometry" />
        </mxCell>
        <mxCell id="73OWAqlcFQXWZOg_Nexa-42" value="+ IsAlive(): bool&lt;br&gt;+ Die()" style="text;strokeColor=none;fillColor=none;align=left;verticalAlign=top;spacingLeft=4;spacingRight=4;overflow=hidden;rotatable=0;points=[[0,0.5],[1,0.5]];portConstraint=eastwest;whiteSpace=wrap;html=1;" parent="73OWAqlcFQXWZOg_Nexa-39" vertex="1">
          <mxGeometry y="118" width="210" height="62" as="geometry" />
        </mxCell>
        <mxCell id="73OWAqlcFQXWZOg_Nexa-52" value="«interface»&lt;br&gt;&lt;b&gt;BeeBehavior&lt;/b&gt;" style="html=1;whiteSpace=wrap;fillColor=#ffcccc;strokeColor=#36393d;" parent="1" vertex="1">
          <mxGeometry x="455" y="1110" width="110" height="50" as="geometry" />
        </mxCell>
        <mxCell id="73OWAqlcFQXWZOg_Nexa-53" style="edgeStyle=orthogonalEdgeStyle;rounded=0;orthogonalLoop=1;jettySize=auto;html=1;exitX=0.5;exitY=0;exitDx=0;exitDy=0;endArrow=diamondThin;endFill=1;endSize=16;entryX=0.489;entryY=1.003;entryDx=0;entryDy=0;entryPerimeter=0;" parent="1" source="73OWAqlcFQXWZOg_Nexa-52" target="28" edge="1">
          <mxGeometry relative="1" as="geometry">
            <mxPoint x="509" y="1074" as="targetPoint" />
          </mxGeometry>
        </mxCell>
        <mxCell id="73OWAqlcFQXWZOg_Nexa-55" style="edgeStyle=orthogonalEdgeStyle;rounded=0;orthogonalLoop=1;jettySize=auto;html=1;exitX=0.5;exitY=0;exitDx=0;exitDy=0;entryX=0.5;entryY=1;entryDx=0;entryDy=0;endArrow=block;endFill=0;" parent="1" source="20" target="73OWAqlcFQXWZOg_Nexa-52" edge="1">
          <mxGeometry relative="1" as="geometry" />
        </mxCell>
        <mxCell id="5" style="edgeStyle=orthogonalEdgeStyle;rounded=0;orthogonalLoop=1;jettySize=auto;html=1;exitX=0;exitY=0.25;exitDx=0;exitDy=0;endArrow=diamondThin;endFill=1;endSize=16;" parent="1" source="73OWAqlcFQXWZOg_Nexa-3" edge="1">
          <mxGeometry relative="1" as="geometry">
            <mxPoint x="830" y="95" as="sourcePoint" />
            <mxPoint x="260" y="240" as="targetPoint" />
            <Array as="points">
              <mxPoint x="301" y="223" />
              <mxPoint x="301" y="240" />
            </Array>
          </mxGeometry>
        </mxCell>
        <mxCell id="9" value="Colonie" style="swimlane;fontStyle=1;align=center;verticalAlign=top;childLayout=stackLayout;horizontal=1;startSize=26;horizontalStack=0;resizeParent=1;resizeParentMax=0;resizeLast=0;collapsible=1;marginBottom=0;whiteSpace=wrap;html=1;" parent="1" vertex="1">
          <mxGeometry x="780" y="860" width="160" height="100" as="geometry" />
        </mxCell>
        <mxCell id="11" value="" style="line;strokeWidth=1;fillColor=none;align=left;verticalAlign=middle;spacingTop=-1;spacingLeft=3;spacingRight=3;rotatable=0;labelPosition=right;points=[];portConstraint=eastwest;strokeColor=inherit;" parent="9" vertex="1">
          <mxGeometry y="26" width="160" height="38" as="geometry" />
        </mxCell>
        <mxCell id="41" value="- growColony()&lt;br&gt;" style="text;strokeColor=none;fillColor=none;align=left;verticalAlign=top;spacingLeft=4;spacingRight=4;overflow=hidden;rotatable=0;points=[[0,0.5],[1,0.5]];portConstraint=eastwest;whiteSpace=wrap;html=1;" parent="9" vertex="1">
          <mxGeometry y="64" width="160" height="36" as="geometry" />
        </mxCell>
        <mxCell id="14" style="edgeStyle=orthogonalEdgeStyle;rounded=0;orthogonalLoop=1;jettySize=auto;html=1;exitX=0.5;exitY=0;exitDx=0;exitDy=0;entryX=0.5;entryY=1;entryDx=0;entryDy=0;endArrow=block;endFill=0;" parent="1" source="24" target="73OWAqlcFQXWZOg_Nexa-52" edge="1">
          <mxGeometry relative="1" as="geometry">
            <mxPoint x="520" y="1009.9999999999998" as="targetPoint" />
            <mxPoint x="585" y="1069.9999999999998" as="sourcePoint" />
          </mxGeometry>
        </mxCell>
        <mxCell id="20" value="&lt;i style=&quot;font-weight: 400;&quot;&gt;ConcreteBehavior&lt;/i&gt;&lt;div style=&quot;&quot;&gt;workerBee&lt;/div&gt;" style="swimlane;fontStyle=1;align=center;verticalAlign=top;childLayout=stackLayout;horizontal=1;startSize=40;horizontalStack=0;resizeParent=1;resizeParentMax=0;resizeLast=0;collapsible=1;marginBottom=0;whiteSpace=wrap;html=1;fillColor=#ffcccc;strokeColor=#36393d;" parent="1" vertex="1">
          <mxGeometry x="270" y="1264" width="190" height="148" as="geometry" />
        </mxCell>
        <mxCell id="43" value="- gender : female" style="text;strokeColor=none;fillColor=none;align=left;verticalAlign=top;spacingLeft=4;spacingRight=4;overflow=hidden;rotatable=0;points=[[0,0.5],[1,0.5]];portConstraint=eastwest;whiteSpace=wrap;html=1;" parent="20" vertex="1">
          <mxGeometry y="40" width="190" height="70" as="geometry" />
        </mxCell>
        <mxCell id="21" value="" style="line;strokeWidth=1;fillColor=none;align=left;verticalAlign=middle;spacingTop=-1;spacingLeft=3;spacingRight=3;rotatable=0;labelPosition=right;points=[];portConstraint=eastwest;strokeColor=inherit;" parent="20" vertex="1">
          <mxGeometry y="110" width="190" height="38" as="geometry" />
        </mxCell>
        <mxCell id="24" value="&lt;i style=&quot;font-weight: 400;&quot;&gt;ConcreteBehavior&lt;/i&gt;&lt;div style=&quot;&quot;&gt;foragerBee&lt;/div&gt;" style="swimlane;fontStyle=1;align=center;verticalAlign=top;childLayout=stackLayout;horizontal=1;startSize=40;horizontalStack=0;resizeParent=1;resizeParentMax=0;resizeLast=0;collapsible=1;marginBottom=0;whiteSpace=wrap;html=1;fillColor=#ffcccc;strokeColor=#36393d;" parent="1" vertex="1">
          <mxGeometry x="530" y="1264" width="200" height="250" as="geometry" />
        </mxCell>
        <mxCell id="34" value="- visitedFlowers: []Coordinate&lt;br&gt;&lt;div&gt;- maxNectar : int&lt;/div&gt;&lt;div&gt;- nectarQuantity : int&lt;/div&gt;&lt;div&gt;- pollenQuantity : int&lt;/div&gt;&lt;div&gt;- gender : female&lt;/div&gt;" style="text;strokeColor=none;fillColor=none;align=left;verticalAlign=top;spacingLeft=4;spacingRight=4;overflow=hidden;rotatable=0;points=[[0,0.5],[1,0.5]];portConstraint=eastwest;whiteSpace=wrap;html=1;" parent="24" vertex="1">
          <mxGeometry y="40" width="200" height="80" as="geometry" />
        </mxCell>
        <mxCell id="25" value="" style="line;strokeWidth=1;fillColor=none;align=left;verticalAlign=middle;spacingTop=-1;spacingLeft=3;spacingRight=3;rotatable=0;labelPosition=right;points=[];portConstraint=eastwest;strokeColor=inherit;" parent="24" vertex="1">
          <mxGeometry y="120" width="200" height="38" as="geometry" />
        </mxCell>
        <mxCell id="32" value="- gatherFlower()&lt;div&gt;- findFlower()&lt;/div&gt;&lt;div&gt;- comeBackToHive()&lt;/div&gt;&lt;div&gt;- saveFlowerLocation()&lt;/div&gt;&lt;div&gt;- shareFlowerLocation()&lt;/div&gt;" style="text;strokeColor=none;fillColor=none;align=left;verticalAlign=top;spacingLeft=4;spacingRight=4;overflow=hidden;rotatable=0;points=[[0,0.5],[1,0.5]];portConstraint=eastwest;whiteSpace=wrap;html=1;" parent="24" vertex="1">
          <mxGeometry y="158" width="200" height="92" as="geometry" />
        </mxCell>
        <mxCell id="26" value="Bee" style="swimlane;fontStyle=1;align=center;verticalAlign=top;childLayout=stackLayout;horizontal=1;startSize=26;horizontalStack=0;resizeParent=1;resizeParentMax=0;resizeLast=0;collapsible=1;marginBottom=0;whiteSpace=wrap;html=1;fillColor=#7A6831;strokeColor=#36393d;" parent="1" vertex="1">
          <mxGeometry x="420" y="808" width="180" height="260" as="geometry" />
        </mxCell>
        <mxCell id="29" value="&lt;div&gt;- hive : Hive&lt;br&gt;&lt;/div&gt;&lt;div&gt;- job : [worker, guardian, forager]&lt;br&gt;&lt;/div&gt;&lt;div&gt;- nectar : int&lt;/div&gt;&lt;div&gt;- maxNectar : int&lt;/div&gt;&lt;div&gt;&lt;span style=&quot;background-color: initial;&quot;&gt;- gender : [male, female]&lt;/span&gt;&lt;/div&gt;&lt;div&gt;&lt;span style=&quot;background-color: initial;&quot;&gt;- latestFlowerSeen : *Flower&lt;/span&gt;&lt;/div&gt;&lt;div&gt;&lt;span style=&quot;background-color: initial;&quot;&gt;- availablePosition : []*Position&lt;/span&gt;&lt;/div&gt;" style="text;strokeColor=none;fillColor=none;align=left;verticalAlign=top;spacingLeft=4;spacingRight=4;overflow=hidden;rotatable=0;points=[[0,0.5],[1,0.5]];portConstraint=eastwest;whiteSpace=wrap;html=1;" parent="26" vertex="1">
          <mxGeometry y="26" width="180" height="134" as="geometry" />
        </mxCell>
        <mxCell id="27" value="" style="line;strokeWidth=1;fillColor=none;align=left;verticalAlign=middle;spacingTop=-1;spacingLeft=3;spacingRight=3;rotatable=0;labelPosition=right;points=[];portConstraint=eastwest;strokeColor=inherit;" parent="26" vertex="1">
          <mxGeometry y="160" width="180" height="8" as="geometry" />
        </mxCell>
        <mxCell id="28" value="&lt;span style=&quot;background-color: initial;&quot;&gt;- runAwayFromPredator()&lt;/span&gt;&lt;br&gt;&lt;div&gt;- shareLocation()&lt;/div&gt;&lt;div&gt;- findAJob()&lt;/div&gt;&lt;div&gt;- becomeForager()&lt;/div&gt;&lt;div&gt;+ Die()&lt;/div&gt;&lt;div&gt;- fightPredator()&lt;/div&gt;" style="text;strokeColor=none;fillColor=none;align=left;verticalAlign=top;spacingLeft=4;spacingRight=4;overflow=hidden;rotatable=0;points=[[0,0.5],[1,0.5]];portConstraint=eastwest;whiteSpace=wrap;html=1;" parent="26" vertex="1">
          <mxGeometry y="168" width="180" height="92" as="geometry" />
        </mxCell>
        <mxCell id="Lo6yCbSQAKc7gAuxm41h-45" value="&lt;font style=&quot;font-size: 30px;&quot;&gt;Enum &amp;nbsp;&amp;amp; struct indépendantes&lt;/font&gt;" style="text;html=1;align=center;verticalAlign=middle;whiteSpace=wrap;rounded=0;" vertex="1" parent="1">
          <mxGeometry x="-413" y="510" width="540" height="30" as="geometry" />
        </mxCell>
        <mxCell id="Lo6yCbSQAKc7gAuxm41h-48" value="Orientation &quot;enum&quot;" style="swimlane;fontStyle=1;align=center;verticalAlign=top;childLayout=stackLayout;horizontal=1;startSize=26;horizontalStack=0;resizeParent=1;resizeParentMax=0;resizeLast=0;collapsible=1;marginBottom=0;whiteSpace=wrap;html=1;fillColor=#e1d5e7;strokeColor=#9673a6;" vertex="1" parent="1">
          <mxGeometry x="-110" y="562" width="210" height="168" as="geometry" />
        </mxCell>
        <mxCell id="Lo6yCbSQAKc7gAuxm41h-49" value="North&lt;div&gt;South&lt;/div&gt;&lt;div&gt;NorthEast&lt;/div&gt;&lt;div&gt;NorthWest&lt;/div&gt;&lt;div&gt;SouthEast&lt;/div&gt;&lt;div&gt;SouthWest&lt;/div&gt;" style="text;strokeColor=none;fillColor=none;align=left;verticalAlign=top;spacingLeft=4;spacingRight=4;overflow=hidden;rotatable=0;points=[[0,0.5],[1,0.5]];portConstraint=eastwest;whiteSpace=wrap;html=1;" vertex="1" parent="Lo6yCbSQAKc7gAuxm41h-48">
          <mxGeometry y="26" width="210" height="104" as="geometry" />
        </mxCell>
        <mxCell id="Lo6yCbSQAKc7gAuxm41h-50" value="" style="line;strokeWidth=1;fillColor=none;align=left;verticalAlign=middle;spacingTop=-1;spacingLeft=3;spacingRight=3;rotatable=0;labelPosition=right;points=[];portConstraint=eastwest;strokeColor=inherit;" vertex="1" parent="Lo6yCbSQAKc7gAuxm41h-48">
          <mxGeometry y="130" width="210" height="38" as="geometry" />
        </mxCell>
        <mxCell id="Lo6yCbSQAKc7gAuxm41h-51" value="AgentType &quot;enum&quot;" style="swimlane;fontStyle=1;align=center;verticalAlign=top;childLayout=stackLayout;horizontal=1;startSize=26;horizontalStack=0;resizeParent=1;resizeParentMax=0;resizeLast=0;collapsible=1;marginBottom=0;whiteSpace=wrap;html=1;fillColor=#e1d5e7;strokeColor=#9673a6;" vertex="1" parent="1">
          <mxGeometry x="-340" y="715" width="210" height="98" as="geometry" />
        </mxCell>
        <mxCell id="Lo6yCbSQAKc7gAuxm41h-52" value="Bee&lt;div&gt;Hornet&lt;/div&gt;" style="text;strokeColor=none;fillColor=none;align=left;verticalAlign=top;spacingLeft=4;spacingRight=4;overflow=hidden;rotatable=0;points=[[0,0.5],[1,0.5]];portConstraint=eastwest;whiteSpace=wrap;html=1;" vertex="1" parent="Lo6yCbSQAKc7gAuxm41h-51">
          <mxGeometry y="26" width="210" height="34" as="geometry" />
        </mxCell>
        <mxCell id="Lo6yCbSQAKc7gAuxm41h-53" value="" style="line;strokeWidth=1;fillColor=none;align=left;verticalAlign=middle;spacingTop=-1;spacingLeft=3;spacingRight=3;rotatable=0;labelPosition=right;points=[];portConstraint=eastwest;strokeColor=inherit;" vertex="1" parent="Lo6yCbSQAKc7gAuxm41h-51">
          <mxGeometry y="60" width="210" height="38" as="geometry" />
        </mxCell>
        <mxCell id="Lo6yCbSQAKc7gAuxm41h-54" value="ObjectType &quot;enum&quot;" style="swimlane;fontStyle=1;align=center;verticalAlign=top;childLayout=stackLayout;horizontal=1;startSize=26;horizontalStack=0;resizeParent=1;resizeParentMax=0;resizeLast=0;collapsible=1;marginBottom=0;whiteSpace=wrap;html=1;fillColor=#e1d5e7;strokeColor=#9673a6;" vertex="1" parent="1">
          <mxGeometry x="-340" y="835" width="210" height="98" as="geometry" />
        </mxCell>
        <mxCell id="Lo6yCbSQAKc7gAuxm41h-55" value="Flower&lt;div&gt;Hive&lt;/div&gt;" style="text;strokeColor=none;fillColor=none;align=left;verticalAlign=top;spacingLeft=4;spacingRight=4;overflow=hidden;rotatable=0;points=[[0,0.5],[1,0.5]];portConstraint=eastwest;whiteSpace=wrap;html=1;" vertex="1" parent="Lo6yCbSQAKc7gAuxm41h-54">
          <mxGeometry y="26" width="210" height="34" as="geometry" />
        </mxCell>
        <mxCell id="Lo6yCbSQAKc7gAuxm41h-56" value="" style="line;strokeWidth=1;fillColor=none;align=left;verticalAlign=middle;spacingTop=-1;spacingLeft=3;spacingRight=3;rotatable=0;labelPosition=right;points=[];portConstraint=eastwest;strokeColor=inherit;" vertex="1" parent="Lo6yCbSQAKc7gAuxm41h-54">
          <mxGeometry y="60" width="210" height="38" as="geometry" />
        </mxCell>
        <mxCell id="Lo6yCbSQAKc7gAuxm41h-60" value="ObjectiveType &quot;enum&quot;" style="swimlane;fontStyle=1;align=center;verticalAlign=top;childLayout=stackLayout;horizontal=1;startSize=26;horizontalStack=0;resizeParent=1;resizeParentMax=0;resizeLast=0;collapsible=1;marginBottom=0;whiteSpace=wrap;html=1;fillColor=#e1d5e7;strokeColor=#9673a6;" vertex="1" parent="1">
          <mxGeometry x="-110" y="740" width="210" height="168" as="geometry" />
        </mxCell>
        <mxCell id="Lo6yCbSQAKc7gAuxm41h-61" value="None&lt;div&gt;Position&lt;/div&gt;&lt;div&gt;Flower&lt;/div&gt;&lt;div&gt;Hive&lt;/div&gt;&lt;div&gt;Bee&lt;/div&gt;&lt;div&gt;ProduceHoney&lt;/div&gt;" style="text;strokeColor=none;fillColor=none;align=left;verticalAlign=top;spacingLeft=4;spacingRight=4;overflow=hidden;rotatable=0;points=[[0,0.5],[1,0.5]];portConstraint=eastwest;whiteSpace=wrap;html=1;" vertex="1" parent="Lo6yCbSQAKc7gAuxm41h-60">
          <mxGeometry y="26" width="210" height="104" as="geometry" />
        </mxCell>
        <mxCell id="Lo6yCbSQAKc7gAuxm41h-62" value="" style="line;strokeWidth=1;fillColor=none;align=left;verticalAlign=middle;spacingTop=-1;spacingLeft=3;spacingRight=3;rotatable=0;labelPosition=right;points=[];portConstraint=eastwest;strokeColor=inherit;" vertex="1" parent="Lo6yCbSQAKc7gAuxm41h-60">
          <mxGeometry y="130" width="210" height="38" as="geometry" />
        </mxCell>
        <mxCell id="Lo6yCbSQAKc7gAuxm41h-82" value="Position &quot;struct&quot;" style="swimlane;fontStyle=1;align=center;verticalAlign=top;childLayout=stackLayout;horizontal=1;startSize=26;horizontalStack=0;resizeParent=1;resizeParentMax=0;resizeLast=0;collapsible=1;marginBottom=0;whiteSpace=wrap;html=1;strokeColor=#AEA5B3;fillColor=#B5739D;" vertex="1" parent="1">
          <mxGeometry x="-340" y="562" width="210" height="138" as="geometry" />
        </mxCell>
        <mxCell id="Lo6yCbSQAKc7gAuxm41h-83" value="- x : int&lt;div&gt;- y : int&lt;/div&gt;" style="text;strokeColor=none;fillColor=none;align=left;verticalAlign=top;spacingLeft=4;spacingRight=4;overflow=hidden;rotatable=0;points=[[0,0.5],[1,0.5]];portConstraint=eastwest;whiteSpace=wrap;html=1;" vertex="1" parent="Lo6yCbSQAKc7gAuxm41h-82">
          <mxGeometry y="26" width="210" height="34" as="geometry" />
        </mxCell>
        <mxCell id="Lo6yCbSQAKc7gAuxm41h-84" value="" style="line;strokeWidth=1;fillColor=none;align=left;verticalAlign=middle;spacingTop=-1;spacingLeft=3;spacingRight=3;rotatable=0;labelPosition=right;points=[];portConstraint=eastwest;strokeColor=inherit;" vertex="1" parent="Lo6yCbSQAKc7gAuxm41h-82">
          <mxGeometry y="60" width="210" height="8" as="geometry" />
        </mxCell>
        <mxCell id="Lo6yCbSQAKc7gAuxm41h-85" value="+ NewPosition() : *Position&lt;div&gt;+ move() : bool&lt;/div&gt;&lt;div&gt;+ GoN,S,NE,NW,SE,SW() : bool&lt;/div&gt;" style="text;strokeColor=none;fillColor=none;align=left;verticalAlign=top;spacingLeft=4;spacingRight=4;overflow=hidden;rotatable=0;points=[[0,0.5],[1,0.5]];portConstraint=eastwest;whiteSpace=wrap;html=1;" vertex="1" parent="Lo6yCbSQAKc7gAuxm41h-82">
          <mxGeometry y="68" width="210" height="70" as="geometry" />
        </mxCell>
        <mxCell id="Lo6yCbSQAKc7gAuxm41h-86" value="" style="rounded=1;whiteSpace=wrap;html=1;fillColor=none;strokeWidth=4;" vertex="1" parent="1">
          <mxGeometry x="-380.0000000000002" y="470" width="540" height="510" as="geometry" />
        </mxCell>
      </root>
    </mxGraphModel>
  </diagram>
</mxfile>
